<svg version="1.2" xmlns="http://www.w3.org/2000/svg" viewBox="0 0 74 77" width="50" height="52">
	<defs>
		<clipPath clipPathUnits="userSpaceOnUse" id="cp1">
			<path d="m1 0h72.93v77h-72.93z"/>
		</clipPath>
	</defs>
	<style>
		.s0 { fill: #9e9e9e } 
		.s1 { fill: #ffbb00 } 
		.s2 { fill: #ffffff } 
	</style>
	<g id="Group 81" clip-path="url(#cp1)">
		<path id="Path 100" fill-rule="evenodd" class="s0" d="m47.85 21.34v-4.8l-5.51-0.08-0.88-0.73c-0.09-0.32-0.01-0.65 0.07-0.96 0.27-1 13.69-14.38 14.69-14.66 0.77-0.22 1.44-0.13 2.04 0.43 2.06 3.19 13.08 11.58 13.87 14.37 0.78 2.76-5.13 1.29-6.71 1.63 0.51 5.28-0.66 11.69-0.03 16.82 0.22 1.8 3.17 3.34 4.57 5.02 7.07 8.46 4.16 19.94-4.53 25.83v12.25l-62.86 0.54c-0.88-0.49-0.97-1.2-1.08-2.11-0.78-6.06-0.51-20.86-0.01-27.21 0.09-1.03 0.32-1.93 0.56-2.91h14.92v-10.38c0-0.18 0.7-0.81 0.53-1.33h14.91v-10.39c0-0.09 1.24-1.33 1.33-1.33zm2.67-6.66v18.38c4.31-1.05 7.94-1.49 12.25 0v-17.85c0-1.5 3.84-1.24 4.79-1.59l-10.46-10.35-10.84 10.35zm-2.66 9.32h-12.79v50.6h12.79v-11.19c0-0.09-0.99-0.16-1.61-0.76-9.38-9.13-8.8-20.38 1.61-28.26zm6.79 10.79c-17.72 2.2-15.76 30.05 2.99 29.12 19.12-0.95 17.45-31.66-2.99-29.12zm-22.24 0.92h-12.78v38.88h12.78zm-15.45 11.72h-12.78v27.17h12.78zm45.81 18.1c-3.98 0.63-8.47 1.27-12.25-0.53v9.59h12.25z"/>
		<path id="Path 101" class="s0" d="m27.08 7.49h3.19l-0.23 2.16c-1.25 1.82-7.93-1.99-7.19 2.85 0.54 1.56 6.74 0.55 8.08 3.65 1.36 3.12-0.43 6.08-3.8 6.31l-0.03 2.79c-0.17 0.82-2.52 0.83-2.71 0l0.03-2.85h-3.2v-2.12c1.72-0.15 6.23 0.55 7.2-1.06l0.22-1.82c-0.7-2.04-8.78 0.1-8.52-5.9 0.16-3.99 3.77-3.51 4.23-4.07 0.36-0.45-0.41-2.52 0.87-3.13 2.14-0.33 1.95 1.79 1.86 3.19z"/>
		<path id="Path 102" class="s0" d="m11.1 21.34l3.21 0.25c0.69 0.53 0.75 1.14 0 1.63-1.72 1.11-7.21-1.32-7.38 2.57 0.56 2.74 8.88 0.29 8.46 6.46-0.17 2.5-1.85 3.86-4.23 4.06l-0.03 2.79-1.38 0.74c-1.72-0.33-1.15-3.42-1.32-3.58-0.13-0.14-3.56 0.45-3.19-1.33 0.32-1.52 6.22-0.21 7.2-1.85l0.22-1.83c-0.54-1.56-8.77-0.83-8.48-5.88 0.22-3.77 3.86-3.69 4.19-4.09 0.36-0.45-0.41-2.53 0.87-3.13 2.14-0.33 1.95 1.79 1.86 3.19z"/>
		<path id="Path 103" fill-rule="evenodd" class="s1" d="m54.64 34.79c20.45-2.53 22.12 28.18 2.99 29.13-18.75 0.93-20.7-26.93-2.99-29.13zm0.5 5.89c-3.19-3.48-9.56 0.48-6.78 5.45 2.85 5.1 11.17-0.65 6.78-5.45zm7.45 0.45c-1.79 0.48-11.19 12.81-13.46 14.79-0.56 1.82 1.46 2.17 2.47 0.86l12.5-13.61c0.73-1.14-0.07-2.44-1.51-2.04zm-1.17 9.23c-5.48 0.19-5.36 9.18 0.51 8.78 5.09-0.35 5.46-9-0.51-8.78z"/>
		<path id="Path 104" class="s2" d="m62.59 41.13c1.44-0.4 2.24 0.9 1.5 2.04l-12.49 13.61c-1.01 1.31-3.03 0.96-2.47-0.86 2.27-1.98 11.67-14.31 13.46-14.79z"/>
		<path id="Path 107" class="s1" d="m60.17 53.37c0.75-1.17 3.99-0.12 2.88 2.05-1.38 2.69-4.11-0.12-2.88-2.05z"/>
		<path id="Path 108" class="s1" d="m53.12 42.16c1.66 1.16-0.23 4.51-2.53 3.07-1.69-1.05 0.85-4.25 2.53-3.07z"/>
	</g>
</svg>