<svg version="1.2" xmlns="http://www.w3.org/2000/svg" viewBox="0 0 74 77" width="50" height="52">
	<defs>
		<clipPath clipPathUnits="userSpaceOnUse" id="cp1">
			<path d="m0 0h73.13v77h-73.13z"/>
		</clipPath>
	</defs>
	<style>
		.s0 { fill: #ffbb00 } 
		.s1 { fill: #9e9e9e } 
		.s2 { fill: #ffffff } 
	</style>
	<g id="Group 83" clip-path="url(#cp1)">
		<path id="Path 109" class="s0" d="m36.46 3.02c-2.57 0.19-7.58 2.34-9.87 3.65-0.29 0.16-1.4 0.77-1.45 1-0.05 0.29 0.02 0.68-0.02 1.02-0.2 1.4-1.04 2.48-2.02 3.42 2.22 7.18 7.51 13 13.5 17.32 5.91-4.39 11.23-10.13 13.44-17.32-1.02-0.97-1.84-2.06-2.03-3.5-0.04-0.31 0.05-0.77-0.03-1.01-0.07-0.19-2.3-1.41-2.66-1.59-2.06-1.05-4.32-1.92-6.56-2.51-0.6-0.16-1.74-0.52-2.3-0.48z"/>
		<path id="Path 110" fill-rule="evenodd" class="s1" d="m55.75 64.58c-0.07 2.58-1.88 4.44-4.45 4.62 0.02 2.14-1.33 3.54-3.3 4.11-0.27 0.07-0.9 0.1-1.05 0.18-0.05 0.04-0.49 0.82-0.62 0.99-2.06 2.69-4.08 2.71-7.26 2.37-1.83-0.2-3.58-0.66-5.29-1.32-2.73 2.11-6.67 0.95-7.6-2.42-0.38-0.11-0.79 0-1.18-0.04-1.81-0.2-3.51-1.68-3.83-3.48-2.32 0.24-4.62-1.16-5.1-3.5-3.8 0.42-6.54-3.49-4.54-6.84l-1.45-1.95c-1.67 3.69-6.94 4.23-9.19 0.79-1.4-2.15-0.99-4.05 0.16-6.14 3.78-6.93 8.38-13.46 12.21-20.37 3.6-5.12 11.08-1.46 9.52 4.23-0.21 0.73-0.68 1.32-0.94 2.03 1.26 0.92 2.75 1.48 4.3 1.69 2.23 0.31 2.42-0.18 4.31-0.86 3.2-1.15 8.85-2.18 12.18-1.65 1.16 0.19 2.29 0.71 3.44 1.01 1.75 0.45 3.61 0.81 5.42 0.57 0.08-0.08-1.07-1.83-1.18-2.07-2.63-5.69 5.19-10.96 9.43-4.72 4.49 6.59 8.29 13.87 12.73 20.52 2.18 4.08-1.36 8.72-5.89 7.68-1.97-0.45-2.98-1.98-4-3.56-1 1.06-2.18 1.93-3.4 2.74 0.03 1.01 0.19 2.07-0.16 3.05-0.47 1.35-1.87 2.25-3.27 2.34zm-1.17-32.57c-1.57 0.27-2.29 2.25-1.41 3.54l12.92 20.8c1.67 1.92 4.66 0.24 3.95-2.17q-6.56-10.86-13.37-21.56-0.89-0.81-2.09-0.61zm-37.2 0.1c-0.91 0.13-1.35 0.7-1.82 1.4-4.36 6.6-8.01 13.95-12.34 20.61-1.14 2.46 2.03 4.57 3.83 2.42l12.73-21.18c0.71-1.69-0.56-3.5-2.4-3.25zm12.92 15.52c1.1-1.06 1.18-2.55 3.11-2.7 0.49-0.04 0.88 0.13 1.39 0.07 0.84-0.1 1.41-0.77 2.21-0.82 1.98-0.11 6.02 2.46 7.77 3.54 4.4 2.73 8.54 5.87 12.75 8.88 0.07 0.04 0.12 0.02 0.19-0.01 0.27-0.09 1.44-1.03 1.75-1.28 0.3-0.25 1.4-1.15 1.45-1.48l-7.7-12.48c-2.26 0.48-4.58 0.32-6.81-0.17-2.31-0.5-3.92-1.45-6.39-1.35-2.82 0.12-9.19 1.2-11.34 3.02-1.22 1.03-2.01 3.81-2.93 5.19-0.15 1.35 0.99 1.19 1.93 0.98 0.9-0.2 1.96-0.74 2.62-1.39zm-5.06-5.25c-1.24-0.25-2.47-0.61-3.59-1.18-0.32-0.16-1-0.7-1.23-0.77-0.1-0.03-0.16-0.04-0.24 0.05l-8.42 14.03 1.62 2.22c1.32-1.44 2.23-3.7 4.11-4.48 2.32-0.96 5-0.09 6.06 2.21 3.63-1.28 7.67 1.88 6.22 5.77 1.61 0.36 2.93 1.63 3.33 3.23 0.19 0.74 0.18 1.3 0.11 2.06 3.48 0.76 4.94 4.82 2.51 7.55 0.74 0.21 1.48 0.5 2.24 0.64 0.85 0.15 2.05 0.27 2.91 0.3 1.44 0.06 2.13-0.13 3.06-1.27l-6.37-3.35c-1.27-1.12-0.05-3.05 1.53-2.48l7.22 3.64c1.18 0.04 2.5-0.56 1.9-1.92-2.27-1.36-4.73-2.5-6.98-3.85-0.48-0.29-1-0.51-1.21-1.06-0.52-1.3 0.84-2.51 2.06-1.87l7.97 4.4c1.59 0.2 3.11-0.45 2.57-2.29l-9.35-5.57c-0.89-1.05-0.09-2.65 1.28-2.51 0.29 0.03 0.55 0.21 0.8 0.33 3.07 1.51 6.06 3.84 9.14 5.41 1.99 0.31 2.1-0.72 1.57-2.33-4.06-3.06-8.2-6.11-12.51-8.83-0.94-0.59-5.45-3.38-6.25-3.25-0.24 0.04-0.79 0.4-1.11 0.5-0.85 0.27-1.59 0.22-2.45 0.29-1.43 2.55-4.66 4.37-7.61 4.11-2.59-0.23-4.11-3.16-3.02-5.48zm-6.26 12.49c-0.39 0.07-0.75 0.39-1.01 0.68-1 1.76-2.96 3.55-3.89 5.27-0.93 1.72 1.2 3.02 2.56 1.9l4.25-5.76c0.47-1.3-0.58-2.34-1.91-2.09zm6.24 2.26c-0.63 0.06-1 0.42-1.39 0.88-1.67 1.94-3.08 4.42-4.73 6.42-0.82 1.63 1.36 3.06 2.74 1.61 1.82-1.91 3.32-4.8 5.09-6.82 0.71-1.08-0.7-2.19-1.71-2.09zm3.11 5.95c-0.36 0.06-0.71 0.29-0.97 0.54-1.14 1.16-2.1 3.09-3.21 4.34-0.59 1.42 0.78 2.57 2.15 2.06 0.34-0.12 0.64-0.46 0.87-0.74 0.5-0.58 2.76-3.56 2.97-4.11 0.48-1.23-0.56-2.29-1.81-2.09zm3.59 5.38c-0.13 0.03-0.45 0.2-0.57 0.28-0.33 0.22-2.14 2.65-2.21 2.98-0.34 1.61 1.49 2.5 2.71 1.49 0.3-0.24 1.99-2.55 2.06-2.85 0.26-1.23-0.82-2.14-1.99-1.9z"/>
		<path id="Path 111" fill-rule="evenodd" class="s1" d="m36.46 0c0.55-0.02 1.53 0.25 2.11 0.38 2.89 0.66 6.02 1.88 8.64 3.27 0.81 0.42 2.76 1.45 3.37 2.01 1.05 0.97 0.01 1.9 0.54 3.14 0.52 1.21 2.17 1.11 2.17 2.56 0 0.61-0.62 2.36-0.86 3.02-2.14 5.95-6.63 11.37-11.42 15.39-0.67 0.57-3.41 2.79-4.06 2.94-0.82 0.17-1.11-0.13-1.73-0.55-6.2-4.09-13.64-12.71-15.23-20.09-0.13-0.63-0.24-1.21 0.24-1.75 0.5-0.56 1.26-0.47 1.72-1.4 0.58-1.18-0.23-2 0.32-2.89 0.37-0.61 2.96-2.02 3.72-2.42 2.25-1.18 4.91-2.26 7.37-2.92 0.78-0.22 2.34-0.66 3.1-0.69zm0 3.02c-2.57 0.19-7.58 2.34-9.87 3.65-0.29 0.16-1.4 0.77-1.45 1-0.05 0.29 0.02 0.68-0.02 1.02-0.2 1.4-1.04 2.48-2.02 3.42 2.22 7.18 7.51 13 13.5 17.32 5.91-4.39 11.23-10.13 13.44-17.32-1.02-0.97-1.84-2.06-2.03-3.5-0.04-0.31 0.05-0.77-0.03-1.01-0.07-0.19-2.3-1.41-2.66-1.59-2.06-1.05-4.32-1.92-6.56-2.51-0.6-0.16-1.74-0.52-2.3-0.48z"/>
		<path id="Path 112" class="s2" d="m29.99 15.22c1.57-1.68 3.7 1.88 4.83 2.7l6.44-6.4c1.43-0.89 3 0.82 1.97 2.15l-7.51 7.51c-0.81 0.6-1.42 0.33-2.12-0.24-0.84-0.67-2.91-2.71-3.55-3.54-0.52-0.68-0.7-1.5-0.06-2.18z"/>
	</g>
</svg>