<svg version="1.2" xmlns="http://www.w3.org/2000/svg" viewBox="0 0 128 171" width="128" height="171">
	<defs>
		<clipPath clipPathUnits="userSpaceOnUse" id="cp1">
			<path d="m0.23 0.5h127.04v170.55h-127.04z"/>
		</clipPath>
	</defs>
	<style>
		.s0 { fill: #cecece } 
		.s1 { fill: #2e2e2d } 
		.s2 { fill: #f0f0f0 } 
		.s3 { fill: #727272 } 
	</style>
	<g id="Group 165" clip-path="url(#cp1)">
		<path id="Path 198" class="s0" d="m39.45 99.93c0 0 9.3-4.45 10.51-9.3 1.22-4.86 0.41-19.41 0.41-19.41l27.5 1.61c0 0 0 10.52 1.21 14.97 1.22 4.45 6.65 9.7 11.62 12.13 4.97 2.43-22.54 35.99-22.54 35.99 0 0-31.95-25.47-28.71-35.99z"/>
		<path id="Path 199" class="s1" d="m127.13 144.2q-0.11 0.11-0.21 0.21c-16.14 16.44-38.62 26.64-63.48 26.64-24.7 0-47.04-10.06-63.15-26.31q-0.03-0.03-0.06-0.06c1.23-6.58 4.34-20.59 9.49-27.56 6.76-9.14 30.33-17.64 31.13-17.92q0.02-0.01 0.02-0.01c0 0 4.24 24.2 23.65 24.2 19.41 0 23.07-18.65 24.26-24.52q0 0 0.01 0c0.38 0.16 24.71 10.4 29.12 15.22 4.45 4.85 6.47 7.68 9.3 27.9q0.15 1.08-0.08 2.21z"/>
		<path id="Path 200" class="s2" d="m56.84 24.71c0 0-7.68 5.25-10.11 12.53-2.43 7.28-1.21 11.73-2.83 10.92-1.62-0.81-2.02-2.83-3.64-0.81-1.62 2.03-1.62 9.71 0.81 14.16 2.42 4.45 3.64 1.62 4.04 3.23 0.41 1.62 8.9 19.42 19.41 19.42 10.52 0 18.2-12.54 19.42-16.18 1.21-3.64 0.81-4.85 1.61-4.04 0.81 0.8 2.84 1.61 4.45-3.64 1.62-5.26 1.94-12.39 0-14.24-1.82-1.74-2.83 2.91-3.23 2.51-0.41-0.41 0.4-5.26-5.26-11.73-5.66-6.47-21.84-15.77-24.67-12.13z"/>
		<path id="Path 201" class="s3" d="m38.64 45.74c2.43-23.06 12.13-23.46 11.32-25.48-0.8-2.03-12.13-16.18 13.76-19.42 25.88-3.23 13.34 17.39 14.15 18.61 0.81 1.21 8.04 1.68 11.71 18.23 3.66 16.55-2 13.31-2.81 16.14-0.81 2.84-1.62 3.24-2.02 2.43-0.41-0.81 2.02-9.3-3.24-16.18-5.26-6.87-6.07-8.89-7.68-6.87-1.62 2.02-2.83 5.26-6.47 6.87-3.64 1.62-12.54 6.47-14.97 7.69-2.43 1.21-6.07 4.04-6.47 5.66-0.4 1.62-0.81 4.04-1.62 2.43-0.81-1.62-2.02-4.86-3.23-4.05-1.22 0.81-1.22 3.24-2.02 2.83-0.81-0.4-0.41-8.89-0.41-8.89z"/>
	</g>
</svg>