<svg version="1.2" xmlns="http://www.w3.org/2000/svg" viewBox="0 0 144 157" width="144" height="157">
	<defs>
		<clipPath clipPathUnits="userSpaceOnUse" id="cp1">
			<path d="m0.3 0h142.98v157.12h-142.98z"/>
		</clipPath>
	</defs>
	<style>
		.s0 { fill: #e5e5e5 } 
		.s1 { fill: #a0a0a0 } 
		.s2 { fill: #474645 } 
		.s3 { fill: #ffffff } 
		.s4 { fill: #2e2e2d } 
	</style>
	<g id="Group 162" clip-path="url(#cp1)">
		<path id="Path 191" class="s0" d="m92.91 32.85c0 0 0.46 8.6 1.24 7.81 0.77-0.79 2.31-4.71 3.87-4.33 1.57 0.37 3.15 2.32 2.03 8.19-1.13 5.88-3.03 12.15-5.38 12.17-2.34 0.02-1.58-2.33-2.35-1.15-0.77 1.18-4.14 19.59-20.56 19.73-16.43 0.13-20.5-19-20.89-18.99-0.39 0-0.38 1.17-1.95 1.19-1.56 0.01-6.72-9.33-6.77-14.42-0.04-5.08 1.51-6.66 3.47-6.68 1.95-0.01 2.78 5.46 3.16 4.28 0.38-1.18 3.38-16.45 4.54-18.42 1.16-1.96 33.98-5.37 35.55-4.6 1.57 0.77 4.37 8.18 4.04 15.22z"/>
		<path id="Path 192" class="s1" d="m98.63 36.35c0 0 1.97-19.21-2.78-25.43-4.74-6.22-11.83-12.02-24.72-10.74-12.9 1.28-17.97 2.89-22.61 8.79-4.65 5.91-4.26 10.61-4.53 19.99-0.11 3.87 3.41 12.1 4.58 12.09 1.18-0.01 2.38-8.99 3.52-12.52 0 0 0.4-1.92 4.3-3.13 3.91-1.2 30.15-6.19 31.72-5.42 1.57 0.77 3.25 14.05 4.05 16.79 0.81 2.73 1.11 4.68 2.17 3.88 1.06-0.79 1.18-1.94 1.96-3.12 0.77-1.18 1.57 0 2.34-1.18z"/>
		<path id="Path 193" class="s2" d="m143.17 119.11c-9.42 13.98-22.84 25.04-38.61 31.54-4.62 1.91-9.43 3.42-14.41 4.5q-1.69 0.37-3.41 0.67-0.1 0.02-0.2 0.04-3.03 0.52-6.13 0.83-4.26 0.43-8.64 0.43-4.67 0-9.22-0.49-2.9-0.31-5.74-0.81-0.12-0.02-0.25-0.04-1.84-0.33-3.67-0.74c-7.84-1.75-15.29-4.59-22.16-8.32-12.25-6.66-22.7-16.21-30.43-27.73 0.07-4.96 0.41-14.83 1.81-18.58 1.92-5.1 3.49-4.33 26.1-12.74 11.94-4.44 17.16-6.77 19.59-8.15 2.17-1.24 2.13-1.73 2.68-2.28 1.16-1.19 1.67-3.69 2.58-3.69 0.04 0-0.1 0.01-0.01 0.08 0 0 0 0.23 0.07 0.17l0.02-0.02q0.04-0.05 0.12-0.28v-0.01q0.01-0.03 0.02-0.07c0.63 0.5 2.43 2.08 4.56 4.55q0.21 0.25 0.43 0.51c3.21 3.83 6.99 8.52 8.64 10.57q0.04 0.05 0.07 0.09l0.29 0.36 0.46 0.58 9-0.08 0.13-0.18q0.02-0.02 0.05-0.05c0.9-1.23 5.1-6.89 8.42-11.1q0.07-0.09 0.15-0.18c1.55-1.83 3.17-1.92 3.9-2.43q0.02-0.02 0.05-0.04 0.03-0.03 0.07-0.06c0.09-0.08-0.01 0.58-0.11 1.17q0 0.01-0.01 0.03v0.01q-0.05 0.32-0.09 0.55 0 0.02 0 0.04-0.03 0.21-0.01 0.21 0.04 0 0.08-0.01c0.69-0.05 0.88-0.23 3.94 0.86 0.85 0.3 1.92 0.71 3.29 1.24 2.06 0.8 38.44 12.97 43.16 16.84 3.91 3.2 3.63 17.38 3.42 22.21z"/>
		<path id="Path 194" class="s3" d="m89.5 73.94q0 0-0.01 0.08 0 0.06 0 0.18l-0.06 1.82-0.04 1.11v0.03l-0.03 0.8-2.62 77.86q-0.1 0.02-0.2 0.04-3.03 0.52-6.13 0.83-4.26 0.43-8.64 0.43-4.67 0-9.22-0.49-2.9-0.31-5.74-0.81-0.12-0.02-0.25-0.04l-1.5-35.85v-0.02l-0.33-7.82q0-0.03 0-0.06l-1.61-38.23-0.02-0.76q-0.01-0.04-0.01-0.07-0.01-0.22-0.01-0.22 0.09 0.04 0.17 0.09 0.01 0.01 0.01 0.01 0.01 0 0.02 0.01c0.63 0.5 2.43 2.57 4.56 5.11q0.21 0.25 0.43 0.51c3.21 3.83 6.99 8.52 8.64 10.57q0.04 0.05 0.07 0.09l0.29 0.36 0.46 0.58 9-0.08 0.13-0.18q0.02-0.02 0.05-0.05c0.9-1.23 5.1-6.89 8.42-11.1q0.07-0.09 0.15-0.18c1.61-2.04 3-3.71 3.66-4.31q0.18-0.12 0.36-0.24z"/>
		<path id="Path 195" class="s2" d="m75.25 90.39h-6.07l-3.37 3.36 3.59 5.8-9.17 42.51 11.71 8.95 10.4-8.95-7.64-42.4 3.64-5.41z"/>
		<path id="Path 196" class="s4" d="m101.62 102.31l7.16 8.82-18.63 44.02q-1.69 0.37-3.41 0.67l-0.2 0.04q-3.03 0.52-6.13 0.83c2.15-6.52 7.18-23.72 7.44-42.95 0.14-10.63 1.01-27.97 1.43-35.77q0.01-0.11 0.01-0.21 0-0.02 0-0.04 0.01-0.23 0.02-0.46 0.04-0.66 0.07-1.2c0.05-0.9 0.09-1.54 0.11-1.86v-0.18q0.01-0.08 0.01-0.08l0.24 0.31 3.56 4.57 17.13 21.98z"/>
		<path id="Path 197" class="s4" d="m62.55 156.63q-2.9-0.31-5.74-0.81-0.12-0.02-0.25-0.04-1.84-0.33-3.67-0.74l-19.09-45.11 7.16-8.81-8.81-1.52 15.65-20.08 5.28-6.77q0 0 0.01 0.22 0 0.04 0.01 0.07 0.01 0.26 0.04 0.74c0.27 4.87 1.4 25.8 1.59 38.25q0 0.03 0 0.06 0 0.23 0 0.46 0.06 3.74 0.33 7.36v0.02c1.27 17.35 5.86 31.94 7.49 36.7z"/>
	</g>
</svg>