<svg version="1.2" xmlns="http://www.w3.org/2000/svg" viewBox="0 0 134 163" width="134" height="163">
	<defs>
		<clipPath clipPathUnits="userSpaceOnUse" id="cp1">
			<path d="m0.11 0h133.28v162.24h-133.28z"/>
		</clipPath>
	</defs>
	<style>
		.s0 { fill: #2e2e2d } 
		.s1 { fill: #cecece } 
		.s2 { fill: #e5e5e5 } 
		.s3 { fill: #a0a0a0 } 
	</style>
	<g id="Group 160" clip-path="url(#cp1)">
		<path id="Path 185" class="s0" d="m54.36 64.73c0 0 1.28 8.07-0.85 6.79-2.12-1.27-12.52-18.04-14.64-26.95-2.12-8.91-5.09-23.35 0.85-31.84 5.94-8.49 14.01-12.73 24.62-12.73 10.61 0 22.07 0 28.44 5.09 6.36 5.1 8.91 10.62 8.49 21.23-0.43 10.61-4.67 23.77-11.04 35.23-6.37 11.46-7.86 11.17-8.7 9.97-0.85-1.19-1.28-4.67 1.27-8.06 2.55-3.4 15.07-27.38 9.55-37.14-5.52-9.77-44.99-12.74-47.54-3.82-2.55 8.91 0.64 24.83 4.03 28.65 3.4 3.82 4.04 8.7 5.52 13.58z"/>
		<path id="Path 186" class="s1" d="m42.05 88.5c0 0 9.55-4.46 10.83-9.55 1.27-5.09 0.42-20.37 0.42-20.37l28.86 1.69c0 0 0 11.04 1.28 15.71 1.27 4.67 6.03 9.55 11.25 12.1 5.21 2.54-27.67 73.74-27.67 73.74 0 0-28.36-62.28-24.97-73.32z"/>
		<path id="Path 187" class="s2" d="m60.09 9.76c0 0-8.06 5.52-10.61 13.16-2.55 7.64-1.27 12.31-2.97 11.46-1.7-0.85-2.12-2.97-3.82-0.85-1.7 2.13-1.7 10.19 0.85 14.86 2.54 4.67 3.82 1.7 4.24 3.39 0.43 1.7 9.34 20.38 20.38 20.38 11.03 0 19.1-13.16 20.37-16.98 1.27-3.82 0.85-5.09 1.7-4.24 0.85 0.84 2.97 1.69 4.67-3.82 1.7-5.52 2.03-13 0-14.94-1.91-1.83-2.97 3.05-3.4 2.63-0.42-0.43 0.43-5.52-5.52-12.31-5.94-6.79-22.92-16.56-25.89-12.74z"/>
		<path id="Path 188" class="s0" d="m43.33 32.05c0 0 2.12 2.97 4.24 2.97 2.12 0 9.55-0.64 18.04-7.01 8.49-6.36 13.16-11.03 14.43-11.03 1.23 0 4.82 11.82 10.4 17.62 0.41 0.43 1.06 0.56 1.59 0.29 0.81-0.41 1.93-1.27 2.44-3.06 0.85-2.97 5.1-23.34-7.21-25.04-12.31-1.7-29.29-2.55-35.66 1.27-6.36 3.83-13.37 19.74-8.27 23.99z"/>
		<path id="Path 189" class="s3" d="m133.32 133.97c-16.96 17.44-40.68 28.27-66.93 28.27-25.91 0-49.36-10.56-66.28-27.61 1.34-7.04 4.59-21.39 9.91-28.59 7.1-9.61 32.12-17.72 32.9-17.98q0.01 0 0.01 0c0 0 11.33 34.54 25.97 34.54 15.28 0 23.9-28.69 25.15-34.85q0 0 0.02 0.01c0.75 0.3 24.89 10.08 29.49 15.1 4.67 5.09 6.79 8.06 9.76 29.28q0.13 0.9 0 1.83z"/>
	</g>
</svg>