<svg version="1.2" xmlns="http://www.w3.org/2000/svg" viewBox="0 0 145 163" width="145" height="163">
	<defs>
		<clipPath clipPathUnits="userSpaceOnUse" id="cp1">
			<path d="m0.25 0h144v162.24h-144z"/>
		</clipPath>
	</defs>
	<style>
		.s0 { fill: #f0f0f0 } 
		.s1 { fill: #727272 } 
		.s2 { fill: #2e2e2d } 
	</style>
	<g id="Group 157 copy" clip-path="url(#cp1)">
		<path id="Path 176" class="s0" d="m101.62 43.36c-0.04 5.13-5.24 14.54-6.82 14.52-1.57-0.01-1.57-1.19-1.96-1.19q-0.02 0-0.04 0.04c-0.59 1-4.91 19.22-21 19.08-16.54-0.14-19.93-18.68-20.71-19.87-0.16-0.23-0.25-0.33-0.32-0.33-0.28-0.01-0.15 1.51-2.05 1.49-2.37-0.02-4.29-6.34-5.42-12.25-1.13-5.93 0.47-7.88 2.04-8.26 1.58-0.38 3.12 3.57 3.9 4.36 0.79 0.8 1.25-7.86 1.25-7.86-0.33-7.1 2.49-14.56 4.07-15.33 1.58-0.78 34.64 2.65 35.81 4.63 1.17 1.98 4.19 17.37 4.57 18.56 0.39 1.18 1.22-4.33 3.19-4.31 1.97 0.02 3.53 1.6 3.49 6.72z"/>
		<path id="Path 177" class="s1" d="m44.73 36.62c0 0-1.98-19.36 2.8-25.62 4.78-6.26 11.92-12.11 24.91-10.82 12.99 1.29 18.09 2.91 22.77 8.86 4.68 5.95 4.29 10.68 4.56 20.13 0.11 3.9-3.44 12.18-4.62 12.17-1.18-0.01-2.39-9.05-3.54-12.6 0 0-0.41-1.94-4.34-3.15-3.92-1.22-30.36-6.24-31.94-5.46-1.58 0.77-3.27 14.15-4.08 16.9-0.81 2.75-1.12 4.72-2.19 3.92-1.07-0.8-1.19-1.96-1.97-3.15-0.77-1.19-1.58 0-2.36-1.18z"/>
		<path id="Path 178" class="s1" d="m92.8 56.73c-0.59 1-4.91 19.22-21 19.08-16.54-0.14-19.93-18.68-20.71-19.87-0.16-0.23-0.25-0.33-0.32-0.33 0 0 0.04-0.05 0.14-0.03 0.12 0.02 0.39 0.29 0.48 0.47 0.03 0.06 0.12 0.21 0.15 0.28 0.1 0.21 0.2 0.34 0.3 0.55 0.15 0.3 0.32 0.54 0.47 0.84q0.27 0.53 0.55 1.06 0.29 0.56 0.6 1.11 0.3 0.55 0.63 1.08 0.28 0.48 0.6 0.93 0.25 0.37 0.55 0.69c0.12 0.13 0.27 0.28 0.45 0.34 1.15 0.38 1.92 0.38 2.69-0.39 0.77-0.76 4.23-4.61 6.54-5.77 2.31-1.15 4.66-0.44 6.2 0.33 1.54 0.77 3.23-0.13 4.38-0.52 1.15-0.39 1.95-0.26 3.11 0.13 1.15 0.38 4.75 3.56 5.51 4.33 0.77 0.77 1.76 2.01 3.02 2.14 1.25 0.13 5.26-7.26 5.65-6.47q0.01 0.01 0.01 0.02z"/>
		<path id="Path 179" class="s0" d="m71.71 60.06c2.37 0 7.49 2.36 9.06 3.54 1.58 1.18-4.72 7.49-9.84 7.49-5.12 0-8.67-6.31-8.67-7.49 0-1.18 6.3-3.54 9.45-3.54z"/>
		<path id="Path 180" class="s2" d="m144.25 123.86c-12.08 17.97-30.71 31.17-52.47 36.17q-2.05 0.48-4.14 0.85-2.82 0.51-5.71 0.83-4.76 0.53-9.66 0.53-4.59 0-9.05-0.47-3.06-0.31-6.06-0.85-1.96-0.34-3.89-0.77c-21.96-4.91-40.78-18.16-52.96-36.26-0.19-5.63-0.18-18.25 3.49-21.25 4.76-3.9 41.4-16.16 43.47-16.97 1.38-0.53 2.46-0.94 3.32-1.25 1.91-0.68 2.71-0.86 3.21-0.9 0.3-0.02 0.5 0.02 0.76 0.04q0.04 0.01 0.08 0.01 0.02-0.01-0.01-0.22 0-0.02 0-0.03-0.04-0.25-0.1-0.6c-0.1-0.59-0.21-1.26-0.11-1.17q0.03 0.03 0.07 0.05 0.02 0.02 0.05 0.04c0.73 0.51 0.41 2.17 1.97 4.02 0.05 0.06 1.14 1.49 1.18 1.56 3.35 4.24 7.51 7.91 8.43 9.15 0.01 0.02 0.93 0.62 1.1-0.15l0.05-0.46h9.07l0.47-0.58 0.29-0.36q0.03-0.04 0.08-0.1c1.65-2.06 5.46-6.78 8.69-10.64q0.22-0.26 0.44-0.51c1.77-2.07 3.33-3.51 4.16-4.23q0.27-0.22 0.43-0.35 0.09 0.3 0.14 0.36l0.02 0.01c0.07 0.07 0.07-0.17 0.07-0.17 0.09-0.07-0.07 0.09-0.07 0.12-0.08 2.89 1.49 2.33 2.66 3.52 0.56 0.56 0.51 1.04 2.7 2.29 2.45 1.41 7.71 3.75 19.73 8.22 22.78 8.47 24.36 7.69 26.29 12.83 1.32 3.53 1.7 12.46 1.81 17.69z"/>
		<path id="Path 181" class="s0" d="m90.49 78.3q0 0.01-0.01 0.15l-0.04 0.91-1.61 38.51q0 0.03 0 0.06l-0.34 7.88v0.02l-1.46 35.05q-2.83 0.51-5.71 0.83-4.76 0.53-9.66 0.53-4.59 0-9.05-0.47-3.07-0.31-6.06-0.85l-2-59.25-0.61-18.11-0.03-0.84-0.03-1.12-0.06-1.87q0-0.02-0.01-0.05 0-0.17 0-0.17 0.17 0.11 0.35 0.24c0.67 0.6 2.07 2.28 3.69 4.34q0.08 0.09 0.15 0.18c3.35 4.24 7.58 9.95 8.49 11.18q0.02 0.03 0.04 0.06l0.14 0.18 9.06 0.07 0.46-0.58 0.29-0.36q0.04-0.04 0.08-0.1c1.66-2.06 5.47-6.78 8.7-10.64q0.22-0.26 0.43-0.51c1.78-2.13 3.34-3.92 4.18-4.76q0.26-0.26 0.42-0.39 0-0.01 0.01-0.01 0.1-0.05 0.19-0.11z"/>
		<path id="Path 182" class="s2" d="m68.16 96.07h6.11l3.4 3.39-3.62 5.84 9.23 42.82-11.79 9.01-10.48-9.01 7.7-42.71-3.67-5.45z"/>
		<path id="Path 183" class="s1" d="m62.61 161.77q-3.07-0.31-6.06-0.85-1.96-0.34-3.89-0.77l-18.28-43.19 7.22-8.87-8.88-1.53 17.26-22.14 3.21-4.12 0.62-0.79q0 0 0 0.17 0.01 0.02 0.01 0.05c0.02 0.33 0.05 0.99 0.1 1.91q0.05 0.73 0.09 1.68 0 0.01 0.01 0.03 0 0.11 0.01 0.22c0.22 4.22 0.58 11.2 0.89 18.43 0.26 6.23 0.48 12.64 0.55 17.6 0.24 18.38 4.82 34.92 7.14 42.17z"/>
		<path id="Path 184" class="s1" d="m102.7 106.88l7.21 8.88-18.74 44.27q-2.05 0.48-4.14 0.85-2.83 0.51-5.71 0.83c1.88-5.68 5.98-19.57 7.17-35.88v-0.02q0.28-3.64 0.33-7.42 0.01-0.23 0.01-0.46 0-0.03 0-0.06c0.1-6.69 0.47-15.81 0.84-23.61q0.07-1.53 0.14-2.98v-0.01c0.27-5.49 0.51-9.98 0.62-11.92q0.04-0.64 0.05-0.9 0.01-0.14 0.01-0.15l5.31 6.82h0.01l15.76 20.23z"/>
	</g>
</svg>