<svg version="1.2" xmlns="http://www.w3.org/2000/svg" viewBox="0 0 57 41" width="50" height="36">
	<defs>
		<clipPath clipPathUnits="userSpaceOnUse" id="cp1">
			<path d="m0.92 0.5h55.83v40.17h-55.83z"/>
		</clipPath>
	</defs>
	<style>
		.s0 { fill: #000000 } 
	</style>
	<g id="Group 130" clip-path="url(#cp1)">
		<path id="Path 158" fill-rule="evenodd" class="s0" d="m11.07 14.66v6.05h7.71c0.33 0 1.6 1.8 2.2-0.22 0.67-2.26-1.01-9.13 1.1-10.38 1.87-1.1 12.29 0.25 15.06-0.27 1.16-0.9 2.81-5.72 3.75-6.01 0.59-0.17 1.22-0.01 1.73 0.28 3.47 7.45 6.83 15.09 9.85 22.78-0.9 2.57-3.53 0.69-5.43 0.3-2.32-0.47-5.05-0.62-7.41-0.44-1 0.08-5.92 0.92-6.5 1.36-0.4 0.31-0.29 0.36-0.18 0.76 0.68 2.6 3.77 6.35 3.06 9.07-0.76 2.89-4.94 3.67-6.65 1.19-0.81-1.18-2.9-7.53-3.22-7.81-0.24-0.21-5.11 0.21-6-1.55 0.09 1.05 0.22 4.53-1.36 4.53h-7.71v5.89c0 0.2-0.65 0.58-0.9 0.46v-6.35h-7.71c-0.17 0-1.27-1.23-1.35-1.67-0.31-1.58-0.2-7.87-0.03-9.68 0.07-0.69 0.56-2.24 1.38-2.24h7.71v-6.05h-7.41c-0.63 0-1.53-1.3-1.64-1.98-0.28-1.81-0.24-7.76-0.02-9.65 0.19-1.65 1.04-2.14 2.56-2.28 3.29-0.3 11.01-0.37 14.22 0.01 1.14 0.14 2.11 0.73 2.27 1.95 0.21 1.6 0.25 8.83-0.02 10.29-0.11 0.55-1.25 1.66-1.66 1.66zm7.79-12.61l-16.06-0.04c-0.22 0.15-0.52 0.33-0.64 0.57-0.27 0.57-0.28 9.7 0 10.27 0.22 0.45 0.72 0.62 1.2 0.62l15.27-0.16c0.5-0.28 0.55-0.69 0.62-1.2 0.24-1.92 0.16-6.47-0.01-8.49-0.03-0.47-0.05-1.24-0.38-1.57zm15.18 24.7c4.4-1.08 9.08-1.33 13.54-0.4 0.87 0.18 3.38 1.44 3.66 0.51l-9.5-22.17c-0.47-0.11-0.62 0.41-0.82 0.7-0.79 1.22-1.34 2.81-2.23 4.11-2.22 3.25-5.37 5.82-8.58 8.06 1.5 2.91 3.09 6.04 3.93 9.19zm2.11-16.01h-13.44c-0.04 0-0.46 0.42-0.46 0.45v8.16c0 0.09-0.29 0.19-0.29 0.3-0.04 0.88 2.11-0.36 2.11-0.6v-6.35c0-0.64 4.79-0.62 5.44-0.3 1.13 0.55 0.27 2.8 0.75 3.77 1.73-0.76 0.8-1.78 1.06-3.17 0.32-1.75 4.59 0.47 4.83-2.26zm-11.18 2.41v5.74c0.75-0.68 3.11-1.13 3.64-1.65 0.65-0.64 0.13-3.11 0.29-4.09zm4.76 5.51c-0.45-0.33-0.89-0.39-1.43-0.25-1.1 0.29-6.89 3-7.56 3.73-3.09 3.4-0.24 8.81 4.31 8.16 0.76-0.11 7.42-2.89 7.63-3.24 0.79-1.29-2.64-6.72-2.95-8.4zm-26.66 14.74h15.41c1.01 0 0.83-3.89 0.73-4.66-0.13-0.97-0.82-2.1-0.86-3.08-0.03-0.9 1.45-4.05 0.13-4.05h-15.72c-0.37 0-0.71 1.25-0.76 1.66-0.14 1.24-0.12 8.95 0.29 9.62 0.1 0.16 0.61 0.47 0.78 0.51zm23.72-2.72c1.45 2.18 2.44 8.58 5.39 8.9 1.56 0.17 3.16-1.39 3-2.94-0.22-2.21-2.95-5.65-3.26-8.08z"/>
		<path id="Path 159" class="s0" d="m56.39 11.64c0.3 0.31-0.08 0.88-0.52 1.15-0.44 0.27-3.52 1.62-4 1.74-0.97 0.26-1.31-0.52-0.22-1.14 0.5-0.28 4.55-1.93 4.74-1.75z"/>
		<path id="Path 160" class="s0" d="m49.14 4.7c0.18 0.18-1.37 4.59-1.57 4.92-0.26 0.44-0.85 0.8-1.15 0.51-0.18-0.18 1.37-4.59 1.57-4.92 0.27-0.44 0.86-0.8 1.15-0.51z"/>
		<path id="Path 161" class="s0" d="m56.69 21.62c0.21 0.27-0.19 0.88-0.69 0.86-0.61-0.03-5.02-1.75-5.04-2.23-0.02-0.57 0.82-0.31 1.13-0.23 0.57 0.13 4.45 1.41 4.6 1.6z"/>
		<path id="Path 162" fill-rule="evenodd" class="s0" d="m3.82 3.49c1.04-0.35 5.22-0.67 5.77 0.2 0.69 1.09 0.25 6.71-0.03 8.26h-5.29c-0.03 0-0.45-0.43-0.45-0.46zm4.84 0.91h-3.93v6.65h3.93z"/>
		<path id="Path 163" class="s0" d="m11.07 11.34v-0.91h6.2c0.44 0 0.44 0.91 0 0.91z"/>
		<path id="Path 164" class="s0" d="m11.07 4.09h6.2c0.44 0 0.44 0.91 0 0.91h-5.74c-0.2 0-0.58-0.65-0.46-0.91z"/>
		<path id="Path 165" class="s0" d="m11.07 7.41h6.2c0.44 0 0.44 0.91 0 0.91h-5.74c-0.2 0-0.58-0.65-0.46-0.91z"/>
		<path id="Path 166" fill-rule="evenodd" class="s0" d="m17.35 23.5c0.62 0.62 0.68 4.94-0.44 5.31-2.54-0.41-10.98 0.78-12.79-0.09-0.95-0.47-0.91-4.98 0.07-5.39 0.97-0.42 9.99-0.35 11.58-0.22 0.47 0.04 1.24 0.05 1.58 0.39zm-12.62 4.46h11.78v-3.93c-3.92-0.05-7.87 0.08-11.78 0z"/>
		<path id="Path 167" class="s0" d="m3.97 30.68h13.3c0.44 0 0.44 0.9 0 0.9h-13.3c-0.32 0-0.58-0.67 0-0.9z"/>
	</g>
</svg>