<svg version="1.2" xmlns="http://www.w3.org/2000/svg" viewBox="0 0 50 39" width="50" height="39">
	<defs>
		<clipPath clipPathUnits="userSpaceOnUse" id="cp1">
			<path d="m0.5 0.5h49v38h-49z"/>
		</clipPath>
	</defs>
	<style>
		.s0 { fill: #000000 } 
	</style>
	<g id="Group 132" clip-path="url(#cp1)">
		<path id="Path 168" fill-rule="evenodd" class="s0" d="m12.53 37.98c-0.06 0.23-0.44 0.35-0.66 0.38-1.45 0.19-6.37 0.18-7.84 0-0.64-0.08-0.63-0.56-0.68-1.13-0.24-2.93 0.19-6.19 0.02-9.16-1.54-0.65-2.51-1.62-2.7-3.35-0.21-1.99-0.24-6.88 0-8.84 0.27-2.21 2.18-2.78 4.04-3.25-1.32-2.47-0.14-6.12 2.93-6.32 3.5-0.24 5.11 3.5 3.54 6.32 1.36 0.34 2.94 0.64 3.68 1.97 0.08 0.14 0.38 0.73 0.38 0.81v7.98c0 0.45-1.2 0.45-1.2 0v-7.83c0-0.22-0.84-1.02-1.1-1.15-0.22-0.12-2.45-0.83-2.59-0.82-0.39 0.04-1.08 0.86-2.4 0.85-1.02 0-2.29-0.86-2.5-0.84-0.3 0.03-2 0.64-2.34 0.81-0.82 0.39-1.15 0.83-1.25 1.76-0.19 1.64-0.23 7.13 0.03 8.68 0.14 0.85 0.68 1.51 1.43 1.88 0.42 0.21 0.96 0.11 1.24 0.57v9.85h6.77v-7.45c0-0.46 1.2-0.46 1.2 0zm-5.15-30.42c-3.11 0.57-2.48 6.26 1.13 5.64 3.06-0.51 2.69-6.34-1.13-5.64z"/>
		<path id="Path 169" fill-rule="evenodd" class="s0" d="m34.8 15.41c0.29-1.74 2.55-2.51 4.06-2.78-1.46-2.38-0.19-6.09 2.77-6.32 3.55-0.28 5.15 3.42 3.69 6.32 2.09 0.57 3.86 1.06 4.07 3.53 0.15 1.69 0.21 8.2-0.23 9.56-0.38 1.14-1.41 1.93-2.49 2.35-0.19 3 0.28 6.35 0.02 9.31-0.05 0.48-0.08 0.99-0.68 0.98-2.47-0.19-5.25 0.23-7.69 0-0.25-0.02-0.5 0.01-0.68-0.22-0.47-0.6 0.07-8.71-0.13-10.07-0.58-0.13-2.14-0.94-1.3-1.61 0.51-0.41 0.88 0.16 1.33 0.34 0.41 0.18 0.9 0.04 1.17 0.5v9.85h6.77v-9.85c0.28-0.46 0.82-0.36 1.24-0.57 0.8-0.39 1.33-1.1 1.45-2 0.24-1.74 0.2-6.78 0.01-8.56-0.06-0.59-0.28-1.14-0.76-1.5-0.28-0.21-2.68-1.1-2.92-1.08-0.24 0.03-1.16 0.74-1.82 0.83-0.91 0.13-1.49-0.06-2.3-0.37-0.23-0.09-0.51-0.44-0.7-0.46-0.34-0.03-2.66 0.85-3.01 1.14-1.43 1.23-0.17 3.49-0.75 4.67-0.22 0.46-1.12 0.34-1.12 0.07 0-1.13-0.17-3.04 0-4.06zm6.72-7.86c-3.15 0.53-2.54 6.24 1.01 5.67 3.09-0.49 2.84-6.31-1.01-5.67z"/>
		<path id="Path 170" fill-rule="evenodd" class="s0" d="m18.1 20.68c-0.19 0.61-1.26 0.2-1.19-0.46 0.14-2.69-0.23-5.62-0.02-8.27 0.22-2.74 1.94-3.47 4.37-3.98-1.62-2.58-0.52-6.48 2.55-7.3 3.4-0.91 6.14 2.03 5.68 5.38-0.09 0.67-0.49 1.25-0.56 1.91 1.55 0.46 3.24 0.84 3.89 2.51 0.42 1.05 0.49 4.97 0.31 6.14-0.16 1.04-1.19 0.61-1.19 0.53v-5.64c0-0.28-0.62-1.3-0.91-1.49-0.27-0.19-2.33-0.92-2.67-0.96-0.54-0.07-1.26 0.65-1.91 0.88-1.14 0.4-1.96 0.38-3.08-0.08-0.43-0.18-1.16-0.8-1.44-0.83-0.26-0.02-2.54 0.74-2.83 0.93-0.35 0.23-1 1.19-1 1.55zm6.59-18.99c-5 0.49-3.04 9.24 1.69 6.97 3.27-1.57 2.19-7.36-1.69-6.97z"/>
		<path id="Path 171" class="s0" d="m30.58 26.17h-3.23c-0.63 0-0.77-1.21-0.3-1.21h4.36c0.46 0 0.33 1.22 0.45 1.51l3.99-2.94-3.84-2.93c-0.33-0.04-0.18 0.04-0.22 0.23-0.13 0.74 0.12 1.03-0.83 1.13-1.95 0.2-6.62 0.21-8.58 0-1.05-0.12-1.11-1.09-0.15-1.21h8.36c0.06-0.73-0.39-2.31 0.85-1.99l5.77 4.17c0.33 0.24 0.44 0.75 0.14 1.06l-5.98 4.25c-1.25 0.33-0.66-1.28-0.79-2.07z"/>
		<path id="Path 172" class="s0" d="m22.99 24.96c0.47 0.15 0.38 0.95-0.22 1.14-0.39 0.13-3.38 0.15-3.84 0.06-0.85-0.15-0.62-1.04-0.75-1.65-1.14 1.1-2.71 1.87-3.9 2.85-0.16 0.14-0.15 0.15-0.02 0.31 0.75 0.92 3.07 1.82 3.92 2.86 0.14-0.56-0.12-1.34 0.74-1.36 2.77 0.28 6.2-0.35 8.89 0 0.83 0.11 0.86 0.7 0.21 1.13l-8.57 0.08c-0.04 0.49 0.26 1.94-0.52 1.95-0.75 0.02-5.16-3.84-6.24-4.28-0.18-0.15-0.19-0.38-0.16-0.59 0.1-0.69 5.36-3.97 6.13-4.73 1.32-0.36 0.48 2.23 1.02 2.23 0.67 0 2.87-0.13 3.31 0z"/>
	</g>
</svg>