<svg version="1.2" xmlns="http://www.w3.org/2000/svg" viewBox="0 0 48 39" width="50" height="41">
	<defs>
		<clipPath clipPathUnits="userSpaceOnUse" id="cp1">
			<path d="m0 0h47.86v38.5h-47.86z"/>
		</clipPath>
	</defs>
	<style>
		.s0 { fill: #9e9e9e } 
		.s1 { fill: #ffbb00 } 
	</style>
	<g id="Group 77" clip-path="url(#cp1)">
		<path id="Path 87" fill-rule="evenodd" class="s0" d="m9.09 23.37c0.57 0.4 2.55-0.8 3.2-1.02 3.42-1.14 5.87-0.63 9.13 0.63 1.24 0.48 3.12 1.74 4.31 2 2.39 0.51 5.42 0.02 8.32 0.73 0.61 0.15 1.29 0.66 1.79 0.7 2.36 0.16 5.32-2.17 7.35-3.07 4-1.78 6.15 2.16 3.49 4.86-1.27 1.29-6.07 4.78-7.72 5.73-1.89 1.11-9.35 4.09-11.36 4.28-2.79 0.26-7.52-1.32-10.51-1.84-1.43-0.25-3.95-0.96-5.2-0.42-0.49 0.21-0.82 0.77-1.44 1.03-0.87 0.35-5.73 1.62-6.45 1.51-0.7-0.09-0.65-0.55-0.83-1.1-0.99-3.04-2.65-9.46-3.08-12.56-0.29-2.06 0.09-1.87 1.85-2.4 1.31-0.4 4.97-1.58 6.03-1.1 0.86 0.39 1.01 1.96 1.12 2.04zm-2.22 0.02l-4.66 1.1 2.75 11.8 4.66-1.11zm30.19 4.94c-0.08 0.09 0.55 1.15-0.27 2.34-1.84 2.7-6.78 1.07-9.45 0.94-0.97-0.05-3.69 0.68-3.97-0.16-0.38-1.17 0.3-1.46 1.27-1.68 2.68-0.61 5.36 0.42 7.94 0.39 1.11-0.02 3.6-0.48 2.16-1.84-1.66-1.58-6.83-0.78-9-1.15-2.61-0.45-5.39-2.93-8.29-3.24-3.15-0.32-3.62 0.33-6.17 1.25-0.51 0.18-1.5 0.01-1.64 0.57-0.26 0.98 1.96 6.55 1.92 8.05 0.67 0.2 1.39-0.19 1.99-0.16 4.13 0.19 9.05 2.08 13.22 2.6 6.37-1.65 12.62-4.3 17.56-8.74 0.79-0.7 2.69-2.84 0.29-2.47-0.84 0.14-3.25 1.91-4.26 2.34-0.58 0.25-3.15 0.8-3.3 0.96z"/>
		<path id="Path 88" class="s0" d="m23.75 21.47c-1.74-0.37-2.35-2.84-1.93-4.4 1.23-4.51 11.91-5.31 15.52-3.56l-1.13 1.9c-3.19-0.83-8.33-0.94-11.08 1.12-0.99 0.73-2.22 2.61-0.29 2.76 3.43 0.26 7.21-0.22 10.68-0.03l1 2.21z"/>
		<path id="Path 89" fill-rule="evenodd" class="s0" d="m30.4 0.13c9.48-1.61 9.24 12.62 0.56 11.39-6.42-0.91-6.41-10.4-0.56-11.39zm0.27 2.18c-0.36 0.08-0.6 0.29-0.88 0.5-3.85 2.83 0.09 8.55 3.97 5.88 3.48-2.4 1.03-7.3-3.09-6.38z"/>
		<path id="Path 90" fill-rule="evenodd" class="s1" d="m40 13.57c4.5-0.97 7.48 3.84 4.62 7.36-2.2 2.69-6.56 1.87-7.69-1.38-0.85-2.41 0.45-5.42 3.07-5.98zm1.45 1.59c-0.96-0.22-0.49 1.38-1.08 1.79-0.46 0.33-1.79 0-1.93 0.13-0.57 0.51 1.31 0.95 1.38 1.28 0.16 0.69-0.29 1.64-0.56 2.28 0.35 0.33 1.27-1.12 2.01-1.04 0.73 0.08 1.08 1.08 1.83 1.04-0.02-0.75-0.69-1.5-0.57-2.29 0.05-0.31 1.96-0.75 1.39-1.27-0.29-0.27-2.74 0.73-2.47-1.92z"/>
		<path id="Path 91" class="s0" d="m6.78 31.95c2-0.22 1.45 3.89-0.84 2.39-1.04-0.69-0.22-2.28 0.84-2.39z"/>
	</g>
</svg>