<svg version="1.2" xmlns="http://www.w3.org/2000/svg" viewBox="0 0 55 51" width="50" height="46">
	<defs>
		<clipPath clipPathUnits="userSpaceOnUse" id="cp1">
			<path d="m0 0.5h55v50.11h-55z"/>
		</clipPath>
	</defs>
	<style>
		.s0 { fill: #000000 } 
	</style>
	<g id="Group 128" clip-path="url(#cp1)">
		<path id="Path 150" fill-rule="evenodd" class="s0" d="m32.83 6.01c1.01 0.13 1.77 0.72 2.44 1.44 0.15 0.15 0.33 0.56 0.44 0.62 0.16 0.09 0.9 0.22 1.19 0.34 3.47 1.32 6.41 3.31 8.78 6.18 0.22 0.1 0.69-0.19 0.97-0.27 4.3-1.09 6.38 4.65 2.57 6.7 0.88 2.57 1.04 5.16 0.96 7.86-0.01 0.31-0.18 0.72-0.1 1.03 0.02 0.05 0.81 0.54 0.96 0.68 1.02 1 1.31 2.7 0.72 3.98l-0.81 1.25c1.86 0.18 3.45 1.76 3.86 3.56 0.14 0.59 0.32 3.39 0.06 3.77-0.14 0.2-0.48 0.23-0.71 0.25-3.83 0.32-8.09-0.27-11.96 0.02-2.36 1.75-5.1 2.96-7.97 3.61-0.2 1.47-1.05 2.97-2.55 3.41-2.42 0.71-4.49-0.85-4.79-3.26-3.19-0.54-6.23-1.81-8.8-3.76-3.5-0.23-7.24 0.22-10.72-0.02-0.43-0.03-1.03-0.02-1.1-0.53-0.08-0.65-0.05-2.2 0.01-2.88 0.19-2.22 2.02-3.97 4.21-4.27-0.94-1.05-1.33-2.34-0.9-3.73 0.13-0.44 0.67-1.04 0.71-1.3 0.08-0.53-0.27-2.17-0.29-2.87-0.04-1.58 0.19-3.4 0.53-4.94q0.24-1.1 0.63-2.15c-2.44-1.6-1.89-5.52 0.91-6.37 1.03-0.32 1.7-0.13 2.71 0.07 1.99-2.45 4.76-4.49 7.69-5.69 0.64-0.26 2.43-0.67 2.8-0.9 0.14-0.09 0.43-0.61 0.6-0.77 0.55-0.54 1.57-1.06 2.35-1.06-0.18-0.51-0.53-0.82-0.7-1.36-0.84-2.73 1.92-5.06 4.47-3.8 1.51 0.75 2.1 2.63 1.4 4.16-0.07 0.17-0.63 0.93-0.57 1zm-2.61-4.58c-2.82 0.36-2.37 4.84 0.64 4.48 2.81-0.34 2.39-4.86-0.64-4.48zm-4.68 8.08c-0.08 0.6 0 1.56 0 2.2 0 0.01 0.14 0.15 0.15 0.15h9.49c0.01 0 0.14-0.14 0.14-0.15v-2.01c0-1.3-1.57-2.72-2.82-2.83-1.02-0.09-3.23-0.11-4.23 0-1.21 0.13-2.56 1.43-2.73 2.64zm-0.76-0.53c-3.61 0.93-6.89 3.17-9.3 5.99 3.05 2.71 0.32 7.45-3.55 6.19-0.86 2.87-1.24 5.92-0.76 8.91 3.01-1.69 6.38 1.34 4.97 4.54l-0.76 1.21c1.6 0.16 3.04 1.38 3.62 2.85 0.57 1.42 0.21 2.98 0.33 4.47 1.7 1.23 3.77 2.18 5.81 2.72 0.43 0.11 1.32 0.38 1.72 0.39 0.09 0.01 0.11 0 0.17-0.07 0.18-0.25 0.3-0.84 0.54-1.19 1.73-2.49 5.63-1.82 6.42 1.08 1.82-0.3 3.65-0.99 5.26-1.86 0.46-0.25 2.2-1.25 2.45-1.57 0.28-0.35 0.09-1.81 0.14-2.36 0.17-2.44 1.9-4.26 4.31-4.55-0.19-0.23-0.43-0.44-0.59-0.7-1.66-2.75 0.57-5.85 3.66-5.44 0.23-2.77 0.03-5.59-0.88-8.23-3.11 0.38-5.33-2.56-3.8-5.41 0.09-0.16 0.43-0.54 0.45-0.61 0.03-0.16-0.77-1.04-0.94-1.23-2.06-2.22-5.06-4.1-7.96-4.94 0.17 0.89 0.3 2.03 0.19 2.93-0.03 0.25-0.11 0.49-0.35 0.6l-10.91 0.02c-0.13-0.02-0.28-0.12-0.35-0.23-0.26-0.44-0.08-2.89 0.11-3.51zm-12.11 6.16c-3.72 0.64-2.1 6.75 1.69 5.04 2.72-1.22 1.5-5.59-1.69-5.04zm34.42 0c-3.14 0.54-2.59 5.57 0.73 5.34 3.6-0.25 3.11-6-0.73-5.34zm-34.8 15.43c-0.6 0.1-1.34 0.73-1.62 1.25-1.33 2.48 1.55 5 3.75 3.47 2.33-1.63 0.9-5.22-2.13-4.72zm38.05 4.45c2.34-2.23-0.73-5.94-3.37-3.99-2.91 2.14 0.71 6.51 3.37 3.99zm-31.89 7.42v-2.35c0-1.63-1.82-3.27-3.4-3.41-1.09-0.09-4.44-0.12-5.37 0.19-1.36 0.46-2.54 2.06-2.54 3.51v1.91c0 0.01 0.13 0.15 0.14 0.15zm35.57 0v-2.54c0-1.5-1.87-3.09-3.31-3.22-1.16-0.11-3.44-0.1-4.61 0-1.39 0.12-3.3 1.66-3.3 3.12v2.64zm-23.89 1.94c-3.7 0.58-2.45 6.37 1.27 5.2 3.05-0.97 1.95-5.71-1.27-5.2z"/>
		<path id="Path 151" class="s0" d="m48.84 4.09h1.48c0.29 0 0.29 0.77 0 0.77h-1.48v1.39c0 0.49-0.87 0.42-0.87 0.1v-1.49h-1.48c-0.29 0-0.29-0.77 0-0.77h1.48v-1.48c0-0.46 0.87-0.37 0.87 0.09z"/>
		<path id="Path 152" class="s0" d="m2.54 33.9v1.59c0 0.25-0.77 0.25-0.77 0v-1.59h-1.58c-0.25 0-0.25-0.76 0-0.76h1.44c0.01 0 0.14-0.14 0.14-0.15v-1.43c0-0.26 0.77-0.26 0.77 0v1.43c0 0.01 0.13 0.15 0.14 0.15h1.44c0.25 0 0.25 0.76 0 0.76z"/>
		<path id="Path 153" fill-rule="evenodd" class="s0" d="m29.65 14.57c10.88-0.75 17.81 11.6 11.4 20.52-5.48 7.64-17.16 7.02-21.79-1.18-4.69-8.33 0.92-18.69 10.39-19.34zm9.38 21.51c6.02-6.01 4.09-16.24-3.68-19.61-9.4-4.08-19.28 4.73-16.35 14.54 2.57 8.61 13.63 11.44 20.03 5.07z"/>
		<path id="Path 154" fill-rule="evenodd" class="s0" d="m37.12 25.11c0.11 0.1 0.11 0.35 0.12 0.5l-0.05 10.12c-0.08 0.19-0.17 0.34-0.39 0.38-0.35 0.07-2.79 0.05-3.12-0.04-0.27-0.08-0.26-0.33-0.28-0.58l0.05-10.22q0.02-0.12 0.11-0.19c0.25-0.16 3.38-0.15 3.56 0.03zm-0.84 0.74h-1.92v9.3h1.92z"/>
		<path id="Path 155" class="s0" d="m32.97 19.62c-0.31-0.09-0.37-0.81 0.21-0.94 0.48-0.1 2.22-0.07 2.77-0.02 0.94 0.08 0.76 0.43 0.71 1.2-0.03 0.38-0.22 2.32-0.37 2.5-0.19 0.24-0.67 0.18-0.76-0.12-0.16-0.56 0.23-1.19 0.03-1.75l-11.6 9.2c-0.42-0.13-0.57-0.52-0.28-0.86 3.44-2.83 7.01-5.51 10.44-8.35 0.32-0.26 0.66-0.52 0.91-0.86-0.52-0.1-1.61 0.14-2.06 0z"/>
		<path id="Path 156" fill-rule="evenodd" class="s0" d="m32.04 28.37c0.27 0.27 0.08 6.64 0.05 7.53q-0.03 0.11-0.15 0.15c-0.27 0.11-3.06 0.11-3.31-0.01-0.26-0.13-0.29-0.57-0.31-0.84-0.14-1.58-0.13-4.55 0-6.14 0.02-0.26 0.04-0.61 0.31-0.74 0.27-0.13 2.47-0.11 2.91-0.07 0.15 0.01 0.39 0.01 0.5 0.12zm-0.84 0.84h-1.92v5.94h1.92z"/>
		<path id="Path 157" fill-rule="evenodd" class="s0" d="m27.34 31.05c0.27 0.27 0.08 4.21 0.07 4.87q-0.09 0.11-0.23 0.15c-0.34 0.1-2.49 0.09-2.93 0.04-0.14-0.01-0.34-0.04-0.43-0.14-0.23-0.23-0.06-4.22-0.05-4.85 0.15-0.17 0.36-0.17 0.57-0.19 0.41-0.04 2.83-0.05 3 0.12zm-0.74 0.84h-2.02v3.26h2.02z"/>
	</g>
</svg>